<?xml version="1.0" encoding="UTF-8"?>
<!DOCTYPE svg PUBLIC "-//W3C//DTD SVG 1.1//EN" "http://www.w3.org/Graphics/SVG/1.1/DTD/svg11.dtd">
<!-- Creator: CorelDRAW 2020 (64 Bit) -->
<svg xmlns="http://www.w3.org/2000/svg" xml:space="preserve" width="1847px" height="1984px" version="1.1" style="shape-rendering:geometricPrecision; text-rendering:geometricPrecision; image-rendering:optimizeQuality; fill-rule:evenodd; clip-rule:evenodd"
viewBox="0 0 1728 1856"
 xmlns:xlink="http://www.w3.org/1999/xlink"
 xmlns:xodm="http://www.corel.com/coreldraw/odm/2003">
 <defs>
  <style type="text/css">
   <![CDATA[
    .fil1 {fill:#C3002F;fill-rule:nonzero}
    .fil0 {fill:#DD0031;fill-rule:nonzero}
    .fil2 {fill:white;fill-rule:nonzero}
   ]]>
  </style>
 </defs>
 <g id="Camada_x0020_1">
  <metadata id="CorelCorpID_0Corel-Layer"/>
  <polygon class="fil0" points="864,0 864,0 864,0 0,308 132,1450 864,1856 864,1856 864,1856 1596,1450 1728,308 "/>
  <polygon class="fil1" points="864,0 864,206 864,205 864,1145 864,1145 864,1856 864,1856 1596,1450 1728,308 "/>
  <path class="fil2" d="M864 205l-540 1211 0 0 201 0 0 0 109 -271 458 0 109 271 0 0 201 0 0 0 -538 -1211 0 0 0 0 0 0 0 0zm158 773l-315 0 158 -380 158 380z"/>
 </g>
</svg>
