<?xml version="1.0" encoding="UTF-8"?>
<!DOCTYPE svg PUBLIC "-//W3C//DTD SVG 1.1//EN" "http://www.w3.org/Graphics/SVG/1.1/DTD/svg11.dtd">
<!-- Creator: CorelDRAW 2020 (64 Bit) -->
<svg xmlns="http://www.w3.org/2000/svg" xml:space="preserve" width="1425px" height="1425px" version="1.1" style="shape-rendering:geometricPrecision; text-rendering:geometricPrecision; image-rendering:optimizeQuality; fill-rule:evenodd; clip-rule:evenodd"
viewBox="0 0 1423 1423"
 xmlns:xlink="http://www.w3.org/1999/xlink"
 xmlns:xodm="http://www.corel.com/coreldraw/odm/2003">
 <defs>
  <style type="text/css">
   <![CDATA[
    .fil0 {fill:#512BD4;fill-rule:nonzero}
   ]]>
  </style>
 </defs>
 <g id="Camada_x0020_1">
  <metadata id="CorelCorpID_0Corel-Layer"/>
  <path class="fil0" d="M0 1423l1423 0 0 -1423 -1423 0 0 1423zm1226 -837l-104 0 0 318 -60 0 0 -318 -103 0 0 -52 267 0 0 52zm-288 318l-203 0 0 -370 194 0 0 52 -135 0 0 105 124 0 0 52 -124 0 0 109 143 0 0 52zm-282 0l-65 0 -172 -272c-4,-7 -8,-14 -11,-21l-2 0c1,8 2,25 2,51l0 242 -58 0 0 -370 70 0 167 265c7,11 12,19 14,23l1 0c-2,-10 -3,-26 -3,-50l0 -238 58 0 0 370zm-402 6c-10,0 -19,-3 -26,-10 -7,-7 -11,-15 -11,-25 0,-10 4,-18 11,-25 7,-7 16,-10 26,-10 10,0 19,3 26,10 7,7 11,15 11,25 0,9 -4,18 -11,25 -7,7 -16,10 -26,10z"/>
 </g>
</svg>
