<?xml version="1.0" encoding="UTF-8"?>
<!DOCTYPE svg PUBLIC "-//W3C//DTD SVG 1.1//EN" "http://www.w3.org/Graphics/SVG/1.1/DTD/svg11.dtd">


<?xml-stylesheet href="logo.css" type="text/css"?>
<svg xmlns="http://www.w3.org/2000/svg" xml:space="preserve" width="1646px" height="1034px" version="1.1" style="shape-rendering:geometricPrecision; text-rendering:geometricPrecision; image-rendering:optimizeQuality; fill-rule:evenodd; clip-rule:evenodd"
viewBox="0 0 1644 1033"
xmlns:xlink="http://www.w3.org/1999/xlink"
xmlns:xodm="http://www.corel.com/coreldraw/odm/2003">


 <g id="Camada_x0020_1">
     <metadata id="CorelCorpID_0Corel-Layer"/>
     <path class="fil0" d="M334 767l-334 -251 334 -250 77 70 -246 180 246 182 -77 70zm975 -501l335 250 -335 251 -77 -70 246 -180 -246 -181 77 -70zm-108 -266l-554 467 148 0 -28 29c-9,10 -19,19 -29,29 -9,10 -19,20 -28,29l-43 44c-18,19 -39,40 -57,59 -13,14 -30,30 -42,44l135 0c-2,4 -28,36 -32,42 -22,27 -43,56 -65,82 -22,27 -43,55 -65,82 -22,26 -44,57 -65,83l-33 42 560 -460 -162 -4c2,-3 23,-24 28,-29 5,-5 9,-10 14,-14 5,-5 10,-10 15,-14 9,-10 19,-19 28,-29 18,-18 40,-39 57,-58 9,-10 19,-19 29,-29 9,-10 19,-20 28,-29 5,-5 26,-25 28,-29l-131 0 264 -338z"/>
    </g>
</svg>
