<?xml version="1.0" encoding="UTF-8"?>
<!DOCTYPE svg PUBLIC "-//W3C//DTD SVG 1.1//EN" "http://www.w3.org/Graphics/SVG/1.1/DTD/svg11.dtd">
<!-- Creator: CorelDRAW 2020 (64 Bit) -->
<svg xmlns="http://www.w3.org/2000/svg" xml:space="preserve" width="1493px" height="1604px" version="1.1" style="shape-rendering:geometricPrecision; text-rendering:geometricPrecision; image-rendering:optimizeQuality; fill-rule:evenodd; clip-rule:evenodd"
viewBox="0 0 1491 1601"
 xmlns:xlink="http://www.w3.org/1999/xlink"
 xmlns:xodm="http://www.corel.com/coreldraw/odm/2003">
 <defs>
  <style type="text/css">
   <![CDATA[
    .fil0 {fill:white}
   ]]>
  </style>
 </defs>
 <g id="Camada_x0020_1">
  <metadata id="CorelCorpID_0Corel-Layer"/>
  <path class="fil0" d="M279 1222c16,-39 41,-90 58,-131 19,-44 39,-87 58,-131 19,-44 39,-87 58,-131 9,-22 19,-44 29,-66 10,-22 19,-43 29,-65 49,-107 97,-219 146,-327 9,-21 84,-191 87,-195 2,2 13,27 15,32l101 228c39,86 77,174 116,261 56,125 111,251 167,376l51 114c4,9 12,24 14,33l-172 0c-4,-2 -5,-10 -7,-14l-65 -162c-4,-10 -8,-19 -12,-29 -2,-4 -10,-28 -13,-28l-394 0 -94 234 -174 0zm-279 -957c0,0 0,0 0,1l26 229c1,6 1,11 2,16l71 617c5,40 8,84 14,124 16,8 82,46 102,57 34,18 68,39 102,57l51 28c17,10 34,19 51,28 34,18 68,38 102,57 34,19 68,37 102,57 34,20 68,37 102,57 19,11 18,12 26,7l77 -43c17,-9 34,-19 51,-29 59,-33 120,-66 179,-99 9,-5 17,-10 26,-14 17,-9 34,-19 51,-29 17,-9 34,-19 51,-28 18,-9 34,-19 51,-29l137 -76c4,-3 3,-8 5,-21 3,-24 5,-48 8,-71l103 -890c1,-9 -5,-8 -25,-15 -97,-34 -196,-70 -293,-104 -39,-14 -78,-28 -117,-42 -97,-35 -196,-69 -293,-104 -4,-2 -10,-4 -15,-5 -5,-2 -11,2 -16,3l-264 94c-78,28 -156,55 -234,83 -39,14 -78,28 -117,42 -39,13 -80,27 -118,42zm610 579l273 0c-4,-13 -96,-233 -102,-245 -4,-11 -31,-77 -34,-82l-136 327z"/>
 </g>
</svg>
