<?xml version="1.0" encoding="UTF-8"?>
<!DOCTYPE svg PUBLIC "-//W3C//DTD SVG 1.1//EN" "http://www.w3.org/Graphics/SVG/1.1/DTD/svg11.dtd">
<!-- Creator: CorelDRAW 2020 (64 Bit) -->
<svg xmlns="http://www.w3.org/2000/svg" xml:space="preserve" width="294px" height="363px" version="1.1" style="shape-rendering:geometricPrecision; text-rendering:geometricPrecision; image-rendering:optimizeQuality; fill-rule:evenodd; clip-rule:evenodd"
viewBox="0 0 66 82"
 xmlns:xlink="http://www.w3.org/1999/xlink"
 xmlns:xodm="http://www.corel.com/coreldraw/odm/2003">
 <defs>
  <style type="text/css">
   <![CDATA[
    .fil2 {fill:#08589C;fill-rule:nonzero}
    .fil1 {fill:#1FBCFD;fill-rule:nonzero}
    .fil0 {fill:#44D1FD;fill-rule:nonzero}
   ]]>
  </style>
 </defs>
 <g id="Camada_x0020_1">
  <metadata id="CorelCorpID_0Corel-Layer"/>
  <path class="fil0" d="M41 0l25 0 -43 43 -11 11 -13 -13 41 -41zm0 38c0,0 1,0 1,0l24 0 -22 22 -13 -13 9 -9 0 0z"/>
  <polygon class="fil1" points="19,60 32,47 44,60 44,60 32,73 "/>
  <path class="fil2" d="M32 73l13 -13 22 22c-8,0 -17,0 -25,0 0,0 -1,0 -1,-1l-9 -9 0 0z"/>
 </g>
</svg>
