<?xml version="1.0" encoding="UTF-8"?>
<!DOCTYPE svg PUBLIC "-//W3C//DTD SVG 1.1//EN" "http://www.w3.org/Graphics/SVG/1.1/DTD/svg11.dtd">
<!-- Creator: CorelDRAW 2020 (64 Bit) -->
<svg xmlns="http://www.w3.org/2000/svg" xml:space="preserve" width="1928px" height="1928px" version="1.1" style="shape-rendering:geometricPrecision; text-rendering:geometricPrecision; image-rendering:optimizeQuality; fill-rule:evenodd; clip-rule:evenodd"
viewBox="0 0 1928 1928"
 xmlns:xlink="http://www.w3.org/1999/xlink"
 xmlns:xodm="http://www.corel.com/coreldraw/odm/2003">
 <defs>
  <style type="text/css">
   <![CDATA[
    .str0 {stroke:#373435;stroke-width:2;stroke-miterlimit:22.9256}
    .fil2 {fill:none}
    .fil1 {fill:black}
    .fil0 {fill:#1A1A1A}
    .fil7 {fill:#FEFEFE}
    .fil4 {fill:yellow}
    .fil8 {fill:white;fill-rule:nonzero}
    .fil3 {fill:black;fill-opacity:0.768627}
    .fil6 {fill:#C2D911}
    .fil5 {fill:#E1EC09}
   ]]>
  </style>
   <clipPath id="id0">
    <path d="M0 0l1928 0 0 1928 -1928 0 0 -1928z"/>
   </clipPath>
    <clipPath id="id1">
     <path d="M964 222c410,0 742,332 742,742 0,410 -332,742 -742,742 -410,0 -742,-332 -742,-742 0,-410 332,-742 742,-742zm-599 634c56,-18 112,-33 168,-45l-74 -130c-4,3 -9,5 -14,5 -7,0 -14,-3 -18,-9 -29,55 -51,115 -62,179zm1030 -45c56,13 112,28 168,46 -11,-64 -33,-124 -62,-179 -4,5 -10,9 -18,9 -5,0 -10,-2 -14,-5l-74 130zm168 261c-77,-27 -154,-49 -231,-65l137 240c4,-3 9,-5 14,-5 7,0 14,3 18,9 29,-55 51,-115 62,-178zm-969 -63c-76,16 -153,38 -229,64 11,63 33,123 62,177 4,-5 10,-9 18,-9 5,0 10,2 14,5l136 -237zm381 -619l161 276 326 1c0,-1 0,-2 0,-4 0,-11 8,-21 19,-22 -105,-168 -290,-281 -501,-286 4,4 7,10 7,16 0,8 -4,15 -11,19zm486 869l-326 1 -164 281c8,3 14,11 14,21 0,3 -1,6 -2,8 209,-7 392,-120 496,-286 -11,-1 -19,-11 -19,-22 0,-1 0,-3 0,-4zm-505 283l-164 -281 -326 -1c0,1 0,2 0,4 0,11 -8,21 -19,22 104,167 287,279 496,286 -1,-3 -2,-5 -2,-8 0,-10 6,-18 14,-21zm-490 -875l326 -1 161 -276c-7,-4 -11,-11 -11,-19 0,-6 3,-12 7,-16 -212,5 -396,118 -501,286 11,1 19,11 19,22 0,1 0,3 0,4z"/>
    </clipPath>
   <clipPath id="id2">
    <path d="M964 222c410,0 742,332 742,742 0,410 -332,742 -742,742 -410,0 -742,-332 -742,-742 0,-410 332,-742 742,-742zm-599 634c56,-18 112,-33 168,-45l-74 -130c-4,3 -9,5 -14,5 -7,0 -14,-3 -18,-9 -29,55 -51,115 -62,179zm1030 -45c56,13 112,28 168,46 -11,-64 -33,-124 -62,-179 -4,5 -10,9 -18,9 -5,0 -10,-2 -14,-5l-74 130zm168 261c-77,-27 -154,-49 -231,-65l137 240c4,-3 9,-5 14,-5 7,0 14,3 18,9 29,-55 51,-115 62,-178zm-969 -63c-76,16 -153,38 -229,64 11,63 33,123 62,177 4,-5 10,-9 18,-9 5,0 10,2 14,5l136 -237zm381 -619l161 276 326 1c0,-1 0,-2 0,-4 0,-11 8,-21 19,-22 -105,-168 -290,-281 -501,-286 4,4 7,10 7,16 0,8 -4,15 -11,19zm486 869l-326 1 -164 281c8,3 14,11 14,21 0,3 -1,6 -2,8 209,-7 392,-120 496,-286 -11,-1 -19,-11 -19,-22 0,-1 0,-3 0,-4zm-505 283l-164 -281 -326 -1c0,1 0,2 0,4 0,11 -8,21 -19,22 104,167 287,279 496,286 -1,-3 -2,-5 -2,-8 0,-10 6,-18 14,-21zm-490 -875l326 -1 161 -276c-7,-4 -11,-11 -11,-19 0,-6 3,-12 7,-16 -212,5 -396,118 -501,286 11,1 19,11 19,22 0,1 0,3 0,4z"/>
   </clipPath>
     <clipPath id="id3">
      <path d="M964 222c410,0 742,332 742,742 0,410 -332,742 -742,742 -410,0 -742,-332 -742,-742 0,-410 332,-742 742,-742zm-599 634c56,-18 112,-33 168,-45l-74 -130c-4,3 -9,5 -14,5 -7,0 -14,-3 -18,-9 -29,55 -51,115 -62,179zm1030 -45c56,13 112,28 168,46 -11,-64 -33,-124 -62,-179 -4,5 -10,9 -18,9 -5,0 -10,-2 -14,-5l-74 130zm168 261c-77,-27 -154,-49 -231,-65l137 240c4,-3 9,-5 14,-5 7,0 14,3 18,9 29,-55 51,-115 62,-178zm-969 -63c-76,16 -153,38 -229,64 11,63 33,123 62,177 4,-5 10,-9 18,-9 5,0 10,2 14,5l136 -237zm381 -619l161 276 326 1c0,-1 0,-2 0,-4 0,-11 8,-21 19,-22 -105,-168 -290,-281 -501,-286 4,4 7,10 7,16 0,8 -4,15 -11,19zm486 869l-326 1 -164 281c8,3 14,11 14,21 0,3 -1,6 -2,8 209,-7 392,-120 496,-286 -11,-1 -19,-11 -19,-22 0,-1 0,-3 0,-4zm-505 283l-164 -281 -326 -1c0,1 0,2 0,4 0,11 -8,21 -19,22 104,167 287,279 496,286 -1,-3 -2,-5 -2,-8 0,-10 6,-18 14,-21zm-490 -875l326 -1 161 -276c-7,-4 -11,-11 -11,-19 0,-6 3,-12 7,-16 -212,5 -396,118 -501,286 11,1 19,11 19,22 0,1 0,3 0,4z"/>
     </clipPath>
     <clipPath id="id4">
      <path d="M964 222c410,0 742,332 742,742 0,410 -332,742 -742,742 -410,0 -742,-332 -742,-742 0,-410 332,-742 742,-742zm-599 634c56,-18 112,-33 168,-45l-74 -130c-4,3 -9,5 -14,5 -7,0 -14,-3 -18,-9 -29,55 -51,115 -62,179zm1030 -45c56,13 112,28 168,46 -11,-64 -33,-124 -62,-179 -4,5 -10,9 -18,9 -5,0 -10,-2 -14,-5l-74 130zm168 261c-77,-27 -154,-49 -231,-65l137 240c4,-3 9,-5 14,-5 7,0 14,3 18,9 29,-55 51,-115 62,-178zm-969 -63c-76,16 -153,38 -229,64 11,63 33,123 62,177 4,-5 10,-9 18,-9 5,0 10,2 14,5l136 -237zm381 -619l161 276 326 1c0,-1 0,-2 0,-4 0,-11 8,-21 19,-22 -105,-168 -290,-281 -501,-286 4,4 7,10 7,16 0,8 -4,15 -11,19zm486 869l-326 1 -164 281c8,3 14,11 14,21 0,3 -1,6 -2,8 209,-7 392,-120 496,-286 -11,-1 -19,-11 -19,-22 0,-1 0,-3 0,-4zm-505 283l-164 -281 -326 -1c0,1 0,2 0,4 0,11 -8,21 -19,22 104,167 287,279 496,286 -1,-3 -2,-5 -2,-8 0,-10 6,-18 14,-21zm-490 -875l326 -1 161 -276c-7,-4 -11,-11 -11,-19 0,-6 3,-12 7,-16 -212,5 -396,118 -501,286 11,1 19,11 19,22 0,1 0,3 0,4z"/>
     </clipPath>
    <clipPath id="id5">
     <path d="M964 222c410,0 742,332 742,742 0,410 -332,742 -742,742 -410,0 -742,-332 -742,-742 0,-410 332,-742 742,-742zm-599 634c56,-18 112,-33 168,-45l-74 -130c-4,3 -9,5 -14,5 -7,0 -14,-3 -18,-9 -29,55 -51,115 -62,179zm1030 -45c56,13 112,28 168,46 -11,-64 -33,-124 -62,-179 -4,5 -10,9 -18,9 -5,0 -10,-2 -14,-5l-74 130zm168 261c-77,-27 -154,-49 -231,-65l137 240c4,-3 9,-5 14,-5 7,0 14,3 18,9 29,-55 51,-115 62,-178zm-969 -63c-76,16 -153,38 -229,64 11,63 33,123 62,177 4,-5 10,-9 18,-9 5,0 10,2 14,5l136 -237zm381 -619l161 276 326 1c0,-1 0,-2 0,-4 0,-11 8,-21 19,-22 -105,-168 -290,-281 -501,-286 4,4 7,10 7,16 0,8 -4,15 -11,19zm486 869l-326 1 -164 281c8,3 14,11 14,21 0,3 -1,6 -2,8 209,-7 392,-120 496,-286 -11,-1 -19,-11 -19,-22 0,-1 0,-3 0,-4zm-505 283l-164 -281 -326 -1c0,1 0,2 0,4 0,11 -8,21 -19,22 104,167 287,279 496,286 -1,-3 -2,-5 -2,-8 0,-10 6,-18 14,-21zm-490 -875l326 -1 161 -276c-7,-4 -11,-11 -11,-19 0,-6 3,-12 7,-16 -212,5 -396,118 -501,286 11,1 19,11 19,22 0,1 0,3 0,4z"/>
    </clipPath>
    <clipPath id="id6">
     <path d="M964 425l156 268 310 1 -63 111c-269,-57 -538,-57 -807,0l-63 -111 310 -1 156 -268zm333 575l133 233 -310 1 -156 268 -156 -268 -310 -1 132 -231c225,-44 447,-44 668,-2z"/>
    </clipPath>
   <clipPath id="id7">
    <path d="M964 425l156 268 310 1 -63 111c-269,-57 -538,-57 -807,0l-63 -111 310 -1 156 -268zm333 575l133 233 -310 1 -156 268 -156 -268 -310 -1 132 -231c225,-44 447,-44 668,-2z"/>
   </clipPath>
   <clipPath id="id8">
    <path d="M964 425l156 268 310 1 -63 111c-269,-57 -538,-57 -807,0l-63 -111 310 -1 156 -268zm333 575l133 233 -310 1 -156 268 -156 -268 -310 -1 132 -231c225,-44 447,-44 668,-2z"/>
   </clipPath>
     <clipPath id="id9">
      <path d="M964 425l156 268 310 1 -63 111c-269,-57 -538,-57 -807,0l-63 -111 310 -1 156 -268zm333 575l133 233 -310 1 -156 268 -156 -268 -310 -1 132 -231c225,-44 447,-44 668,-2z"/>
     </clipPath>
     <clipPath id="id10">
      <path d="M964 425l156 268 310 1 -63 111c-269,-57 -538,-57 -807,0l-63 -111 310 -1 156 -268zm333 575l133 233 -310 1 -156 268 -156 -268 -310 -1 132 -231c225,-44 447,-44 668,-2z"/>
     </clipPath>
   <clipPath id="id11">
    <path d="M964 425l156 268 310 1 -63 111c-269,-57 -538,-57 -807,0l-63 -111 310 -1 156 -268zm333 575l133 233 -310 1 -156 268 -156 -268 -310 -1 132 -231c225,-44 447,-44 668,-2z"/>
   </clipPath>
   <clipPath id="id12">
    <path d="M964 425l156 268 310 1 -63 111c-269,-57 -538,-57 -807,0l-63 -111 310 -1 156 -268zm333 575l133 233 -310 1 -156 268 -156 -268 -310 -1 132 -231c225,-44 447,-44 668,-2z"/>
   </clipPath>
     <clipPath id="id13">
      <path d="M964 425l156 268 310 1 -63 111c-269,-57 -538,-57 -807,0l-63 -111 310 -1 156 -268zm333 575l133 233 -310 1 -156 268 -156 -268 -310 -1 132 -231c225,-44 447,-44 668,-2z"/>
     </clipPath>
     <clipPath id="id14">
      <path d="M964 425l156 268 310 1 -63 111c-269,-57 -538,-57 -807,0l-63 -111 310 -1 156 -268zm333 575l133 233 -310 1 -156 268 -156 -268 -310 -1 132 -231c225,-44 447,-44 668,-2z"/>
     </clipPath>
   <clipPath id="id15">
    <path d="M964 222c410,0 742,332 742,742 0,410 -332,742 -742,742 -410,0 -742,-332 -742,-742 0,-410 332,-742 742,-742zm-599 631c400,-124 799,-123 1197,1 0,1 -95,-498 -599,-498 -298,0 -546,215 -599,498zm1198 218c-393,-137 -793,-136 -1198,1l0 -1c51,285 300,502 599,502 300,0 548,-216 599,-501zm-1198 -218l0 0z"/>
   </clipPath>
    <clipPath id="id16">
     <path d="M345 798l1238 0 0 233 -1238 0 0 -233z"/>
    </clipPath>
 </defs>
 <g id="Camada_x0020_1">
  <metadata id="CorelCorpID_0Corel-Layer"/>
  <path id="BASE" class="fil0" d="M964 222c410,0 742,332 742,742 0,410 -332,742 -742,742 -410,0 -742,-332 -742,-742 0,-410 332,-742 742,-742zm-599 634c56,-18 112,-33 168,-45l-74 -130c-4,3 -9,5 -14,5 -7,0 -14,-3 -18,-9 -29,55 -51,115 -62,179zm1030 -45c56,13 112,28 168,46 -11,-64 -33,-124 -62,-179 -4,5 -10,9 -18,9 -5,0 -10,-2 -14,-5l-74 130zm168 261c-77,-27 -154,-49 -231,-65l137 240c4,-3 9,-5 14,-5 7,0 14,3 18,9 29,-55 51,-115 62,-178zm-969 -63c-76,16 -153,38 -229,64 11,63 33,123 62,177 4,-5 10,-9 18,-9 5,0 10,2 14,5l136 -237zm381 -619l161 276 326 1c0,-1 0,-2 0,-4 0,-11 8,-21 19,-22 -105,-168 -290,-281 -501,-286 4,4 7,10 7,16 0,8 -4,15 -11,19zm486 869l-326 1 -164 281c8,3 14,11 14,21 0,3 -1,6 -2,8 209,-7 392,-120 496,-286 -11,-1 -19,-11 -19,-22 0,-1 0,-3 0,-4zm-505 283l-164 -281 -326 -1c0,1 0,2 0,4 0,11 -8,21 -19,22 104,167 287,279 496,286 -1,-3 -2,-5 -2,-8 0,-10 6,-18 14,-21zm-490 -875l326 -1 161 -276c-7,-4 -11,-11 -11,-19 0,-6 3,-12 7,-16 -212,5 -396,118 -501,286 11,1 19,11 19,22 0,1 0,3 0,4z"/>
  <g style="clip-path:url(#id0)">
   <image x="0" y="0" width="1928" height="1928" xlink:href="Sem título-1_Images\Sem título-1_ImgID1.png"/>
  </g>
  <g>
   <g style="clip-path:url(#id1)">
    <image x="222" y="222" width="1483" height="1483" xlink:href="Sem título-1_Images\Sem título-1_ImgID2.png"/>
   </g>
  </g>
  <path class="fil1" d="M964 222c410,0 742,332 742,742 0,410 -332,742 -742,742 -410,0 -742,-332 -742,-742 0,-410 332,-742 742,-742zm-599 634c56,-18 112,-33 168,-45l-74 -130c-4,3 -9,5 -14,5 -7,0 -14,-3 -18,-9 -29,55 -51,115 -62,179zm1030 -45c56,13 112,28 168,46 -11,-64 -33,-124 -62,-179 -4,5 -10,9 -18,9 -5,0 -10,-2 -14,-5l-74 130zm168 261c-77,-27 -154,-49 -231,-65l137 240c4,-3 9,-5 14,-5 7,0 14,3 18,9 29,-55 51,-115 62,-178zm-969 -63c-76,16 -153,38 -229,64 11,63 33,123 62,177 4,-5 10,-9 18,-9 5,0 10,2 14,5l136 -237zm381 -619l161 276 326 1c0,-1 0,-2 0,-4 0,-11 8,-21 19,-22 -105,-168 -290,-281 -501,-286 4,4 7,10 7,16 0,8 -4,15 -11,19zm486 869l-326 1 -164 281c8,3 14,11 14,21 0,3 -1,6 -2,8 209,-7 392,-120 496,-286 -11,-1 -19,-11 -19,-22 0,-1 0,-3 0,-4zm-505 283l-164 -281 -326 -1c0,1 0,2 0,4 0,11 -8,21 -19,22 104,167 287,279 496,286 -1,-3 -2,-5 -2,-8 0,-10 6,-18 14,-21zm-490 -875l326 -1 161 -276c-7,-4 -11,-11 -11,-19 0,-6 3,-12 7,-16 -212,5 -396,118 -501,286 11,1 19,11 19,22 0,1 0,3 0,4z"/>
  <g style="clip-path:url(#id2)">
   <g>
    <g id="_3017231008992">
    </g>
    <g style="clip-path:url(#id3)">
     <image x="-306" y="-306" width="2539" height="2539" xlink:href="Sem título-1_Images\Sem título-1_ImgID3.png"/>
    </g>
    <g style="clip-path:url(#id4)">
    </g>
   </g>
  </g>
  <path class="fil2" d="M964 222c410,0 742,332 742,742 0,410 -332,742 -742,742 -410,0 -742,-332 -742,-742 0,-410 332,-742 742,-742zm-599 634c56,-18 112,-33 168,-45l-74 -130c-4,3 -9,5 -14,5 -7,0 -14,-3 -18,-9 -29,55 -51,115 -62,179zm1030 -45c56,13 112,28 168,46 -11,-64 -33,-124 -62,-179 -4,5 -10,9 -18,9 -5,0 -10,-2 -14,-5l-74 130zm168 261c-77,-27 -154,-49 -231,-65l137 240c4,-3 9,-5 14,-5 7,0 14,3 18,9 29,-55 51,-115 62,-178zm-969 -63c-76,16 -153,38 -229,64 11,63 33,123 62,177 4,-5 10,-9 18,-9 5,0 10,2 14,5l136 -237zm381 -619l161 276 326 1c0,-1 0,-2 0,-4 0,-11 8,-21 19,-22 -105,-168 -290,-281 -501,-286 4,4 7,10 7,16 0,8 -4,15 -11,19zm486 869l-326 1 -164 281c8,3 14,11 14,21 0,3 -1,6 -2,8 209,-7 392,-120 496,-286 -11,-1 -19,-11 -19,-22 0,-1 0,-3 0,-4zm-505 283l-164 -281 -326 -1c0,1 0,2 0,4 0,11 -8,21 -19,22 104,167 287,279 496,286 -1,-3 -2,-5 -2,-8 0,-10 6,-18 14,-21zm-490 -875l326 -1 161 -276c-7,-4 -11,-11 -11,-19 0,-6 3,-12 7,-16 -212,5 -396,118 -501,286 11,1 19,11 19,22 0,1 0,3 0,4z"/>
  <g>
   <g style="clip-path:url(#id5)">
    <image x="222" y="222" width="1483" height="1483" xlink:href="Sem título-1_Images\Sem título-1_ImgID4.png"/>
   </g>
  </g>
  <g>
   <g style="clip-path:url(#id6)">
    <image x="497" y="425" width="934" height="1078" xlink:href="Sem título-1_Images\Sem título-1_ImgID5.png"/>
   </g>
  </g>
  <g style="clip-path:url(#id7)">
   <polygon class="fil3" points="497,425 1431,425 1431,1503 497,1503 "/>
  </g>
  <g style="clip-path:url(#id8)">
   <g>
    <g>
     <g>
     </g>
    </g>
    <g>
    </g>
    <g style="clip-path:url(#id9)">
     <image x="364" y="292" width="1234" height="1265" xlink:href="Sem título-1_Images\Sem título-1_ImgID6.png"/>
    </g>
    <g style="clip-path:url(#id10)">
    </g>
   </g>
  </g>
  <path class="fil2 str0" d="M964 425l156 268 310 1 -63 111c-269,-57 -538,-57 -807,0l-63 -111 310 -1 156 -268zm333 575l133 233 -310 1 -156 268 -156 -268 -310 -1 132 -231c225,-44 447,-44 668,-2z"/>
  <g style="clip-path:url(#id11)">
   <polygon class="fil3" points="497,425 1431,425 1431,1503 497,1503 "/>
  </g>
  <g style="clip-path:url(#id12)">
   <g>
    <g>
    </g>
    <g style="clip-path:url(#id13)">
     <image x="348" y="333" width="1232" height="1262" xlink:href="Sem título-1_Images\Sem título-1_ImgID7.png"/>
    </g>
    <g style="clip-path:url(#id14)">
    </g>
   </g>
  </g>
  <path class="fil2 str0" d="M964 425l156 268 310 1 -63 111c-269,-57 -538,-57 -807,0l-63 -111 310 -1 156 -268zm333 575l133 233 -310 1 -156 268 -156 -268 -310 -1 132 -231c225,-44 447,-44 668,-2z"/>
  <g style="clip-path:url(#id15)">
   <image x="222" y="222" width="1483" height="1483" xlink:href="Sem título-1_Images\Sem título-1_ImgID8.png"/>
  </g>
  <g>
   <polygon class="fil4" points="964,246 977,269 1003,274 985,293 988,319 964,308 940,319 943,293 925,274 951,269 "/>
   <polygon class="fil4" points="792,267 810,286 836,285 824,308 833,332 807,327 787,344 783,318 761,303 785,292 "/>
   <polygon class="fil4" points="630,328 652,342 677,335 671,360 685,382 659,383 643,404 634,380 609,371 629,354 "/>
   <polygon class="fil4" points="488,427 513,435 535,422 535,448 554,466 529,473 519,497 504,476 478,473 493,452 "/>
   <polygon class="fil4" points="373,556 399,558 418,540 424,566 447,578 424,592 420,617 400,600 374,604 384,580 "/>
   <polygon class="fil4" points="293,709 318,705 332,683 344,707 370,713 351,732 353,758 329,746 305,755 309,730 "/>
   <polygon class="fil4" points="251,877 275,867 284,843 301,862 327,863 313,885 321,910 296,904 274,919 272,893 "/>
   <polygon class="fil4" points="251,1051 272,1035 274,1009 296,1024 321,1018 313,1043 327,1065 301,1066 284,1085 275,1061 "/>
   <polygon class="fil4" points="293,1219 309,1199 305,1173 329,1182 353,1170 351,1196 370,1215 344,1221 332,1245 318,1223 "/>
   <polygon class="fil4" points="373,1372 384,1348 374,1324 400,1328 420,1311 424,1336 447,1350 424,1362 418,1388 399,1370 "/>
   <polygon class="fil4" points="488,1501 493,1476 478,1455 504,1452 519,1431 529,1455 554,1462 535,1480 535,1506 513,1493 "/>
   <polygon class="fil4" points="630,1600 629,1574 609,1557 634,1548 643,1524 659,1545 685,1546 671,1568 677,1593 652,1586 "/>
   <polygon class="fil4" points="792,1661 785,1636 761,1625 783,1610 787,1584 807,1601 833,1596 824,1620 836,1643 810,1642 "/>
   <polygon class="fil4" points="964,1682 951,1659 925,1654 943,1635 940,1609 964,1620 988,1609 985,1635 1003,1654 977,1659 "/>
   <polygon class="fil4" points="1136,1661 1118,1642 1092,1643 1104,1620 1095,1596 1121,1601 1141,1584 1145,1610 1167,1625 1143,1636 "/>
   <polygon class="fil4" points="1298,1600 1276,1586 1251,1593 1257,1568 1243,1546 1269,1545 1285,1524 1294,1548 1319,1557 1299,1574 "/>
   <polygon class="fil4" points="1440,1501 1415,1493 1393,1506 1393,1480 1374,1462 1399,1455 1409,1431 1424,1452 1450,1455 1435,1476 "/>
   <polygon class="fil4" points="1555,1372 1529,1370 1510,1388 1504,1362 1481,1350 1504,1336 1508,1311 1528,1328 1554,1324 1544,1348 "/>
   <polygon class="fil4" points="1635,1219 1610,1223 1596,1245 1584,1221 1558,1215 1577,1196 1575,1170 1599,1182 1623,1173 1619,1199 "/>
   <polygon class="fil4" points="1677,1051 1653,1061 1644,1085 1627,1066 1601,1065 1615,1043 1607,1018 1632,1024 1654,1009 1656,1035 "/>
   <polygon class="fil4" points="1677,877 1656,893 1654,919 1632,904 1607,910 1615,885 1601,863 1627,862 1644,843 1653,867 "/>
   <polygon class="fil4" points="1635,709 1619,730 1623,755 1599,746 1575,758 1577,732 1558,713 1584,707 1596,683 1610,705 "/>
   <polygon class="fil4" points="1555,556 1544,580 1554,604 1528,600 1508,617 1504,592 1481,578 1504,566 1510,540 1529,558 "/>
   <polygon class="fil4" points="1440,427 1435,452 1450,473 1424,476 1409,497 1399,473 1374,466 1393,448 1393,422 1415,435 "/>
   <polygon class="fil4" points="1298,328 1299,354 1319,371 1294,380 1285,404 1269,383 1243,382 1257,360 1251,335 1276,342 "/>
   <polygon class="fil4" points="1136,267 1143,292 1167,303 1145,318 1141,344 1121,327 1095,332 1104,308 1092,285 1118,286 "/>
  </g>
  <g>
   <g>
    <polygon class="fil5" points="1132,283 1121,294 1106,293 1113,307 1108,322 1123,319 1135,329 1137,313 1150,304 1136,298 "/>
    <polygon class="fil6" points="1128,298 1125,302 1119,302 1122,306 1120,311 1125,310 1129,314 1130,308 1134,306 1130,303 "/>
   </g>
   <g>
    <polygon class="fil5" points="1290,343 1277,351 1262,347 1266,362 1257,375 1273,376 1282,388 1288,373 1303,368 1291,358 "/>
    <polygon class="fil6" points="1283,357 1278,360 1273,358 1275,363 1272,368 1277,368 1280,372 1282,367 1287,365 1283,362 "/>
   </g>
   <g>
    <polygon class="fil5" points="1429,439 1415,444 1401,436 1401,452 1390,462 1405,467 1411,481 1420,468 1436,467 1426,454 "/>
    <polygon class="fil6" points="1419,451 1414,452 1409,450 1409,455 1405,459 1410,460 1413,465 1416,461 1421,460 1418,456 "/>
   </g>
   <g>
    <polygon class="fil5" points="1542,565 1526,567 1515,556 1511,571 1497,579 1511,587 1514,602 1525,592 1541,594 1535,579 "/>
    <polygon class="fil6" points="1528,575 1523,575 1519,571 1518,576 1514,579 1518,582 1519,587 1523,583 1528,584 1526,579 "/>
   </g>
   <g>
    <polygon class="fil5" points="1620,715 1605,713 1596,699 1589,713 1574,717 1585,728 1584,744 1598,737 1613,743 1610,727 "/>
    <polygon class="fil6" points="1605,721 1600,720 1597,716 1595,720 1590,722 1593,725 1593,731 1598,728 1603,730 1602,725 "/>
   </g>
   <g>
    <polygon class="fil5" points="1661,879 1646,873 1641,858 1631,870 1615,871 1624,884 1619,899 1634,895 1647,904 1648,889 "/>
    <polygon class="fil6" points="1645,881 1640,879 1638,874 1635,878 1630,878 1632,883 1631,888 1636,887 1640,890 1640,884 "/>
   </g>
   <g>
    <polygon class="fil5" points="1661,1049 1648,1039 1647,1024 1634,1033 1619,1029 1624,1044 1615,1057 1631,1058 1641,1070 1646,1055 "/>
    <polygon class="fil6" points="1645,1047 1640,1044 1640,1038 1636,1041 1631,1040 1632,1045 1630,1050 1635,1050 1638,1054 1640,1049 "/>
   </g>
   <g>
    <polygon class="fil5" points="1620,1213 1610,1201 1613,1185 1598,1191 1584,1184 1585,1200 1574,1211 1589,1215 1596,1229 1605,1215 "/>
    <polygon class="fil6" points="1605,1207 1602,1203 1603,1198 1598,1200 1593,1197 1593,1203 1590,1206 1595,1208 1597,1212 1600,1208 "/>
   </g>
   <g>
    <polygon class="fil5" points="1542,1363 1535,1349 1541,1334 1525,1336 1514,1326 1511,1341 1497,1349 1511,1357 1515,1372 1526,1361 "/>
    <polygon class="fil6" points="1528,1354 1526,1349 1528,1344 1523,1345 1519,1341 1518,1346 1514,1349 1518,1352 1519,1357 1523,1353 "/>
   </g>
   <g>
    <polygon class="fil5" points="1429,1489 1426,1474 1436,1461 1420,1460 1411,1447 1405,1461 1390,1466 1401,1476 1401,1492 1415,1484 "/>
    <polygon class="fil6" points="1419,1477 1418,1472 1421,1468 1416,1467 1413,1463 1410,1468 1405,1469 1409,1473 1409,1478 1414,1476 "/>
   </g>
   <g>
    <polygon class="fil5" points="1290,1585 1291,1570 1303,1560 1288,1555 1282,1540 1273,1552 1257,1553 1266,1566 1262,1581 1277,1577 "/>
    <polygon class="fil6" points="1283,1571 1283,1566 1287,1563 1282,1561 1280,1556 1277,1560 1272,1560 1275,1565 1273,1570 1278,1568 "/>
   </g>
   <g>
    <polygon class="fil5" points="1132,1645 1136,1630 1150,1624 1137,1615 1135,1599 1123,1609 1108,1606 1113,1621 1106,1635 1121,1634 "/>
    <polygon class="fil6" points="1128,1630 1130,1625 1134,1622 1130,1620 1129,1614 1125,1618 1120,1617 1122,1622 1119,1626 1125,1626 "/>
   </g>
   <g>
    <polygon class="fil5" points="964,1666 972,1652 987,1649 977,1637 978,1622 964,1628 950,1622 951,1637 941,1649 956,1652 "/>
    <polygon class="fil6" points="964,1650 967,1645 972,1644 968,1640 969,1635 964,1637 959,1635 960,1640 956,1644 961,1645 "/>
   </g>
   <g>
    <polygon class="fil5" points="796,1645 807,1634 822,1635 815,1621 820,1606 805,1609 793,1599 791,1615 778,1624 792,1630 "/>
    <polygon class="fil6" points="800,1630 804,1626 809,1626 806,1622 808,1617 803,1618 799,1614 798,1620 794,1622 798,1625 "/>
   </g>
   <g>
    <polygon class="fil5" points="638,1585 651,1577 666,1581 662,1566 671,1553 655,1552 646,1540 640,1555 625,1560 637,1570 "/>
    <polygon class="fil6" points="645,1571 650,1568 655,1570 653,1565 656,1560 651,1560 648,1556 646,1561 641,1563 645,1566 "/>
   </g>
   <g>
    <polygon class="fil5" points="499,1489 513,1484 527,1492 527,1476 538,1466 523,1461 517,1447 508,1460 492,1461 502,1474 "/>
    <polygon class="fil6" points="509,1477 514,1476 519,1478 519,1473 523,1469 518,1468 515,1463 512,1467 507,1468 510,1472 "/>
   </g>
   <g>
    <polygon class="fil5" points="386,1363 402,1361 413,1372 417,1357 431,1349 417,1341 414,1326 403,1336 387,1334 393,1349 "/>
    <polygon class="fil6" points="400,1354 405,1353 409,1357 410,1352 414,1349 410,1346 409,1341 405,1345 400,1344 402,1349 "/>
   </g>
   <g>
    <polygon class="fil5" points="308,1213 323,1215 332,1229 339,1215 354,1211 343,1200 344,1184 330,1191 315,1185 318,1201 "/>
    <polygon class="fil6" points="323,1207 328,1208 331,1212 333,1208 338,1206 335,1203 335,1197 330,1200 325,1198 326,1203 "/>
   </g>
   <g>
    <polygon class="fil5" points="267,1049 282,1055 287,1070 297,1058 313,1057 304,1044 309,1029 294,1033 281,1024 280,1039 "/>
    <polygon class="fil6" points="283,1047 288,1049 290,1054 293,1050 298,1050 296,1045 297,1040 292,1041 288,1038 288,1044 "/>
   </g>
   <g>
    <polygon class="fil5" points="267,879 280,889 281,904 294,895 309,899 304,884 313,871 297,870 287,858 282,873 "/>
    <polygon class="fil6" points="283,881 288,884 288,890 292,887 297,888 296,883 298,878 293,878 290,874 288,879 "/>
   </g>
   <g>
    <polygon class="fil5" points="308,715 318,727 315,743 330,737 344,744 343,728 354,717 339,713 332,699 323,713 "/>
    <polygon class="fil6" points="323,721 326,725 325,730 330,728 335,731 335,725 338,722 333,720 331,716 328,720 "/>
   </g>
   <g>
    <polygon class="fil5" points="386,565 393,579 387,594 403,592 414,602 417,587 431,579 417,571 413,556 402,567 "/>
    <polygon class="fil6" points="400,575 402,579 400,584 405,583 409,587 410,582 414,579 410,576 409,571 405,575 "/>
   </g>
   <g>
    <polygon class="fil5" points="499,439 502,454 492,467 508,468 517,481 523,467 538,462 527,452 527,436 513,444 "/>
    <polygon class="fil6" points="509,451 510,456 507,460 512,461 515,465 518,460 523,459 519,455 519,450 514,452 "/>
   </g>
   <g>
    <polygon class="fil5" points="638,343 637,358 625,368 640,373 646,388 655,376 671,375 662,362 666,347 651,351 "/>
    <polygon class="fil6" points="645,357 645,362 641,365 646,367 648,372 651,368 656,368 653,363 655,358 650,360 "/>
   </g>
   <g>
    <polygon class="fil5" points="796,283 792,298 778,304 791,313 793,329 805,319 820,322 815,307 822,293 807,294 "/>
    <polygon class="fil6" points="800,298 798,303 794,306 798,308 799,314 803,310 808,311 806,306 809,302 804,302 "/>
   </g>
   <g>
    <polygon class="fil5" points="964,262 956,276 941,279 951,291 950,306 964,300 978,306 977,291 987,279 972,276 "/>
    <polygon class="fil6" points="964,278 961,283 956,284 960,288 959,293 964,291 969,293 968,288 972,284 967,283 "/>
   </g>
  </g>
  <g>
   <polygon class="fil7" points="807,992 973,1088 846,1166 926,1092 784,992 "/>
   <polygon class="fil7" points="1121,1200 955,1104 1082,1026 1002,1100 1144,1200 "/>
  </g>
  <g>
   <g style="clip-path:url(#id16)">
    <image x="345" y="798" width="1238" height="233" xlink:href="Sem título-1_Images\Sem título-1_ImgID9.png"/>
   </g>
   <path class="fil0" d="M432 935l20 -44c0,0 0,0 0,0l20 -6c0,0 0,0 0,0l25 88c0,0 0,0 0,0l-19 5c0,0 0,0 0,0l-16 -58 -20 44c0,0 0,0 0,0 0,0 0,0 0,0l-40 -27 16 58c0,0 0,0 0,0l-19 5c0,0 0,0 0,0l-25 -88c0,0 0,0 0,0l20 -6c0,0 0,0 0,0l40 27zm190 -17l-50 10 6 29c0,0 0,0 0,0l-19 4c0,0 0,0 0,0l-14 -71c-1,-5 0,-10 3,-14 3,-4 7,-7 12,-8l53 -10c5,-1 10,0 14,3 4,3 7,7 8,12l14 71c0,0 0,0 0,0l-20 4c0,0 0,0 0,0l-6 -29zm155 -22l22 21c0,0 0,0 0,0l1 7c0,0 0,0 0,0l-20 2c0,0 0,0 0,0l-29 -27 -25 3c0,0 0,0 0,0 0,0 0,0 0,0 0,0 0,0 0,0l3 29c0,0 0,0 0,0l-20 2c0,0 0,0 0,0l-10 -91c0,0 0,0 0,0l72 -8c5,-1 10,1 14,4 4,3 7,8 7,13l3 24c1,5 -1,10 -4,14 -3,4 -8,7 -13,7l0 0zm152 -51l-51 2 0 15 53 -2c5,0 10,2 14,5 4,4 6,8 6,13l1 18c0,5 -2,10 -5,14 -4,4 -8,6 -13,6l-54 2c-5,0 -10,-2 -14,-5 -4,-4 -6,-8 -6,-13l0 -9c0,0 0,0 0,0l20 -1c0,0 0,0 0,0l0 7 51 -2 0 -15 -53 2c-5,0 -10,-2 -14,-5 -4,-4 -6,-8 -6,-13l-1 -18c0,-5 2,-10 5,-14 4,-4 8,-6 13,-6l54 -2c5,0 10,2 14,5 4,4 6,8 6,13l0 9c0,0 0,0 0,0l-20 1c0,0 0,0 0,0l0 -7zm159 39l-53 -3 -2 36c0,0 0,0 0,0l-20 -1c0,0 0,0 0,0l5 -92c0,0 0,0 0,0l20 1c0,0 0,0 0,0l-2 36 53 3 2 -36c0,0 0,0 0,0l20 1c0,0 0,0 0,0l-5 92c0,0 0,0 0,0l-20 -1c0,0 0,0 0,0l2 -36zm155 22l-51 -7 -4 29c0,0 0,0 0,0l-20 -3c0,0 0,0 0,0l10 -72c1,-5 3,-10 7,-13 4,-3 9,-4 14,-4l53 7c5,1 10,3 13,7 3,4 4,9 4,14l-10 72c0,0 0,0 0,0l-20 -3c0,0 0,0 0,0l4 -29zm101 26l70 14c0,0 0,0 0,0l-4 20c0,0 0,0 0,0l-90 -18c0,0 0,0 0,0l18 -90c0,0 0,0 0,0l19 4c0,0 0,0 0,0l-14 70zm144 33l69 19c0,0 0,0 0,0l-5 19c0,0 0,0 0,0l-88 -25c0,0 0,0 0,0l25 -88c0,0 0,0 0,0l19 5c0,0 0,0 0,0l-19 69zm-920 -57l50 -10 -4 -21 -50 10 4 21zm153 -47l2 21 51 -6 -2 -21 -51 6zm474 19l51 7 3 -22 -51 -7 -3 22z"/>
   <path class="fil8" d="M439 929l20 -44 20 -6 25 88 -19 5 -17 -59 -20 45 -41 -28 17 59 -19 5 -25 -88 20 -6 40 27zm126 -68l53 -10c5,-1 10,0 14,3 4,3 7,7 8,12l14 71 -20 4 -6 -29 -51 10 6 29 -19 4 -14 -71c-1,-5 0,-10 3,-14 3,-4 7,-7 12,-8zm9 41l51 -10 -4 -22 -51 10 4 22zm224 -57l3 24c1,5 -1,10 -4,14 -3,4 -8,6 -13,7l-1 0 22 21 1 7 -20 2 -29 -27 -26 3c0,0 0,0 0,1 0,0 0,0 0,0l3 29 -20 2 -10 -91 72 -8c5,-1 10,1 14,4 4,3 6,7 7,13zm-71 9l2 22 52 -6 -2 -22 -52 6zm229 -17l0 9 -20 1 0 -8 -52 2 0 16 53 -2c5,0 10,2 13,5 4,4 6,8 6,13l1 18c0,5 -2,10 -5,13 -4,4 -8,6 -13,6l-54 2c-5,0 -10,-2 -13,-5 -4,-4 -6,-8 -6,-13l0 -9 20 -1 0 8 52 -2 -1 -16 -53 2c-5,0 -10,-2 -13,-5 -4,-4 -6,-8 -6,-13l-1 -18c0,-5 2,-10 5,-14 4,-4 8,-6 13,-6l54 -2c5,0 10,2 13,5 4,4 6,8 6,13zm142 -15l20 1 -5 92 -20 -1 2 -36 -54 -3 -2 36 -20 -1 5 -92 20 1 -2 36 54 3 2 -36zm108 9l53 7c5,1 9,3 13,7 3,4 4,9 4,14l-10 72 -20 -3 4 -29 -51 -7 -4 29 -20 -3 10 -72c1,-5 3,-9 7,-13 4,-3 9,-4 14,-4zm-5 42l52 7 3 -22 -52 -7 -3 22zm126 69l18 -90 19 4 -14 71 71 14 -4 20 -90 -18zm143 31l25 -88 19 5 -19 69 69 19 -5 19 -88 -25z"/>
  </g>
 </g>
</svg>
